<svg id="Layer_1" enable-background="new 0 0 256 256" height="512" viewBox="0 0 256 256" width="512" xmlns="http://www.w3.org/2000/svg"><path d="m190.331 188.053-123.259-123.26c-.586-.586-1.535-.586-2.121 0-.586.585-.586 1.536 0 2.121l123.259 123.26c.293.293.677.439 1.061.439s.768-.146 1.061-.439c.585-.586.585-1.536-.001-2.121z" fill="#3a312a"/><path d="m47.811 26.345c-.974 11.564-13.024 13.39-13.024 13.39 10.347.487 12.925 14.059 12.925 14.059.221-9.677 13.321-14.202 13.321-14.202-9.813-.588-13.222-13.247-13.222-13.247z" fill="#d7e057"/><path d="m61.123 38.094c-8.604-.514-11.832-12.024-11.863-12.14-.19-.702-.849-1.164-1.584-1.102-.725.066-1.298.642-1.359 1.367-.859 10.215-11.313 11.964-11.754 12.033-.763.115-1.313.79-1.273 1.561.04.77.657 1.384 1.428 1.421 9.027.425 11.498 12.718 11.521 12.842.138.711.76 1.217 1.473 1.217.042 0 .084-.001.126-.005.764-.064 1.357-.693 1.375-1.459.194-8.509 12.191-12.777 12.313-12.819.676-.235 1.092-.914.994-1.623-.099-.709-.683-1.25-1.397-1.293zm-13.566 10.346c-1.356-3.13-3.708-6.907-7.586-8.876 2.931-1.405 6.408-3.913 8.201-8.272 1.551 3.071 4.2 6.88 8.334 8.722-3.007 1.639-6.923 4.405-8.949 8.426z" fill="#3a312a"/><path d="m26.113 43.326c-.689 8.179-9.212 9.47-9.212 9.47 7.318.344 9.142 9.944 9.142 9.944.156-6.844 9.422-10.045 9.422-10.045-6.942-.415-9.352-9.369-9.352-9.369z" fill="#d7e057"/><path d="m35.555 51.198c-5.767-.345-7.973-8.186-7.995-8.265-.19-.702-.864-1.158-1.581-1.102-.726.065-1.3.643-1.361 1.368-.578 6.871-7.646 8.067-7.941 8.114-.763.115-1.313.79-1.273 1.561.04.77.657 1.384 1.428 1.421 6.035.284 7.723 8.644 7.738 8.726.136.713.759 1.22 1.473 1.22.041 0 .083-.001.124-.005.766-.063 1.359-.694 1.377-1.461.13-5.709 8.332-8.634 8.412-8.662.677-.234 1.094-.913.997-1.622-.1-.709-.684-1.25-1.398-1.293zm-9.585 6.795c-.924-1.886-2.34-3.947-4.447-5.28 1.855-1.041 3.697-2.63 4.87-4.916 1.058 1.874 2.655 3.954 4.941 5.224-1.85 1.1-3.988 2.74-5.364 4.972z" fill="#3a312a"/><path d="m26.113 16.668c-.689 8.179-9.212 9.471-9.212 9.471 7.318.344 9.142 9.944 9.142 9.944.156-6.845 9.422-10.045 9.422-10.045-6.942-.416-9.352-9.37-9.352-9.37z" fill="#d7e057"/><g fill="#3a312a"><path d="m35.555 24.54c-5.767-.345-7.973-8.185-7.995-8.264-.19-.702-.864-1.158-1.581-1.102-.726.065-1.3.643-1.361 1.368-.578 6.871-7.646 8.067-7.941 8.114-.763.115-1.313.79-1.273 1.561.04.77.657 1.384 1.428 1.421 6.035.284 7.723 8.644 7.738 8.725.136.713.759 1.22 1.473 1.22.041 0 .083-.001.124-.005.766-.063 1.359-.694 1.377-1.461.13-5.709 8.332-8.634 8.413-8.662.676-.234 1.093-.913.996-1.622-.1-.708-.684-1.25-1.398-1.293zm-9.585 6.795c-.924-1.885-2.34-3.947-4.447-5.279 1.855-1.041 3.697-2.63 4.87-4.917 1.058 1.874 2.655 3.955 4.941 5.224-1.85 1.1-3.988 2.74-5.364 4.972z"/><path d="m127.9 30.647c-.828 0-1.5.671-1.5 1.5v192c0 .829.672 1.5 1.5 1.5s1.5-.671 1.5-1.5v-192c0-.829-.671-1.5-1.5-1.5z"/><path d="m190.331 65.312c-.586-.586-1.535-.586-2.121 0l-123.259 123.259c-.586.585-.586 1.536 0 2.121.293.293.677.439 1.06.439s.768-.146 1.061-.439l123.259-123.259c.586-.585.586-1.536 0-2.121z"/><path d="m223.9 126.647h-192c-.828 0-1.5.671-1.5 1.5s.672 1.5 1.5 1.5h192c.828 0 1.5-.671 1.5-1.5s-.671-1.5-1.5-1.5z"/></g><path d="m139.028 16.677h-22.256c-3.531 0-6.393 2.862-6.393 6.393v22.684c0 3.531 2.862 6.393 6.393 6.393h22.256c3.531 0 6.393-2.862 6.393-6.393v-22.684c0-3.531-2.862-6.393-6.393-6.393z" fill="#ef6d7a"/><path d="m139.028 15.177h-22.256c-4.352 0-7.893 3.541-7.893 7.893v22.684c0 4.352 3.541 7.893 7.893 7.893h22.256c4.352 0 7.893-3.541 7.893-7.893v-22.684c0-4.352-3.541-7.893-7.893-7.893zm4.893 30.577c0 2.698-2.194 4.893-4.893 4.893h-22.256c-2.698 0-4.893-2.195-4.893-4.893v-22.684c0-2.698 2.194-4.893 4.893-4.893h22.256c2.698 0 4.893 2.195 4.893 4.893z" fill="#3a312a"/><path d="m45.028 110.677h-22.256c-3.531 0-6.393 2.862-6.393 6.393v22.684c0 3.531 2.862 6.393 6.393 6.393h22.256c3.531 0 6.393-2.862 6.393-6.393v-22.684c0-3.531-2.862-6.393-6.393-6.393z" fill="#ef6d7a"/><path d="m45.028 109.177h-22.256c-4.352 0-7.893 3.541-7.893 7.893v22.684c0 4.352 3.541 7.893 7.893 7.893h22.256c4.352 0 7.893-3.541 7.893-7.893v-22.684c0-4.352-3.541-7.893-7.893-7.893zm4.893 30.577c0 2.698-2.194 4.893-4.893 4.893h-22.256c-2.698 0-4.893-2.195-4.893-4.893v-22.684c0-2.698 2.194-4.893 4.893-4.893h22.256c2.698 0 4.893 2.195 4.893 4.893z" fill="#3a312a"/><path d="m233.028 110.677h-22.256c-3.531 0-6.393 2.862-6.393 6.393v22.684c0 3.531 2.862 6.393 6.393 6.393h22.256c3.531 0 6.393-2.862 6.393-6.393v-22.684c0-3.531-2.862-6.393-6.393-6.393z" fill="#ef6d7a"/><path d="m233.028 109.177h-22.256c-4.352 0-7.893 3.541-7.893 7.893v22.684c0 4.352 3.541 7.893 7.893 7.893h22.256c4.352 0 7.893-3.541 7.893-7.893v-22.684c0-4.352-3.541-7.893-7.893-7.893zm4.893 30.577c0 2.698-2.194 4.893-4.893 4.893h-22.256c-2.698 0-4.893-2.195-4.893-4.893v-22.684c0-2.698 2.194-4.893 4.893-4.893h22.256c2.698 0 4.893 2.195 4.893 4.893z" fill="#3a312a"/><path d="m139.028 203.677h-22.256c-3.531 0-6.393 2.862-6.393 6.393v22.684c0 3.531 2.862 6.393 6.393 6.393h22.256c3.531 0 6.393-2.862 6.393-6.393v-22.684c0-3.531-2.862-6.393-6.393-6.393z" fill="#ef6d7a"/><path d="m139.028 202.177h-22.256c-4.352 0-7.893 3.541-7.893 7.893v22.684c0 4.352 3.541 7.893 7.893 7.893h22.256c4.352 0 7.893-3.541 7.893-7.893v-22.684c0-4.352-3.541-7.893-7.893-7.893zm4.893 30.577c0 2.698-2.194 4.893-4.893 4.893h-22.256c-2.698 0-4.893-2.195-4.893-4.893v-22.684c0-2.698 2.194-4.893 4.893-4.893h22.256c2.698 0 4.893 2.195 4.893 4.893z" fill="#3a312a"/><path d="m146.975 98.677h-38.15c-5.544 0-10.039 4.495-10.039 10.039v38.862c0 5.544 4.495 10.039 10.039 10.039h38.15c5.544 0 10.039-4.495 10.039-10.039v-38.862c0-5.544-4.495-10.039-10.039-10.039z" fill="#fae6ca"/><path d="m146.975 97.177h-38.149c-6.362 0-11.539 5.176-11.539 11.539v4.134c0 .829.672 1.5 1.5 1.5s1.5-.671 1.5-1.5v-4.134c0-4.708 3.831-8.539 8.539-8.539h38.149c4.708 0 8.539 3.831 8.539 8.539v38.862c0 4.708-3.831 8.539-8.539 8.539h-38.149c-4.708 0-8.539-3.831-8.539-8.539v-21.468c0-.829-.672-1.5-1.5-1.5s-1.5.671-1.5 1.5v21.467c0 6.363 5.177 11.539 11.539 11.539h38.149c6.362 0 11.539-5.176 11.539-11.539v-38.862c0-6.362-5.177-11.538-11.539-11.538z" fill="#3a312a"/><path d="m199.221 56.422c-6.239-6.239-16.354-6.239-22.593 0s-6.239 16.354 0 22.593 16.354 6.239 22.593 0 6.239-16.354 0-22.593z" fill="#8ac5dc"/><path d="m200.281 55.361c-3.3-3.301-7.688-5.119-12.356-5.119s-9.057 1.818-12.356 5.119c-3.301 3.301-5.119 7.689-5.119 12.357s1.818 9.057 5.119 12.357c3.3 3.301 7.688 5.119 12.356 5.119s9.057-1.818 12.356-5.119c3.301-3.3 5.119-7.689 5.119-12.357 0-4.667-1.818-9.056-5.119-12.357zm-2.121 22.593c-2.734 2.734-6.369 4.24-10.235 4.24s-7.501-1.506-10.235-4.24-4.24-6.369-4.24-10.236c0-3.866 1.506-7.501 4.24-10.236 2.734-2.734 6.369-4.24 10.235-4.24s7.501 1.506 10.235 4.24 4.24 6.37 4.24 10.236c0 3.867-1.505 7.502-4.24 10.236z" fill="#3a312a"/><path d="m79.172 176.471c-6.239-6.239-16.354-6.239-22.592 0-6.239 6.239-6.239 16.354 0 22.593s16.354 6.239 22.592 0c6.239-6.239 6.239-16.354 0-22.593z" fill="#8ac5dc"/><path d="m80.232 175.411c-6.815-6.814-17.902-6.813-24.714 0-6.813 6.813-6.813 17.9 0 24.714 3.407 3.407 7.882 5.11 12.356 5.11 4.476 0 8.95-1.703 12.357-5.11 6.815-6.814 6.815-17.901.001-24.714zm-2.121 22.592c-5.643 5.642-14.825 5.644-20.472 0-5.643-5.644-5.643-14.828 0-20.472 2.822-2.822 6.529-4.232 10.236-4.232 3.706 0 7.413 1.411 10.235 4.232 5.645 5.644 5.645 14.828.001 20.472z" fill="#3a312a"/><path d="m199.221 176.471c-6.239-6.239-16.354-6.239-22.593 0s-6.239 16.354 0 22.593 16.354 6.239 22.593 0 6.239-16.354 0-22.593z" fill="#8ac5dc"/><path d="m200.281 175.411c-3.3-3.301-7.688-5.119-12.356-5.119s-9.057 1.818-12.356 5.119c-3.301 3.301-5.119 7.689-5.119 12.357s1.818 9.057 5.119 12.357c3.3 3.301 7.688 5.119 12.356 5.119s9.057-1.818 12.356-5.119c3.301-3.3 5.119-7.689 5.119-12.357s-1.818-9.057-5.119-12.357zm-2.121 22.592c-2.734 2.734-6.369 4.24-10.235 4.24s-7.501-1.506-10.235-4.24-4.24-6.369-4.24-10.236c0-3.866 1.506-7.501 4.24-10.236 2.734-2.734 6.369-4.24 10.235-4.24s7.501 1.506 10.235 4.24 4.24 6.369 4.24 10.236-1.505 7.502-4.24 10.236z" fill="#3a312a"/><circle cx="67.876" cy="67.718" fill="#8ac5dc" r="15.975"/><path d="m80.232 55.362c-6.813-6.814-17.902-6.813-24.714 0-6.813 6.813-6.813 17.9 0 24.713 3.407 3.407 7.882 5.11 12.356 5.11 4.476 0 8.95-1.703 12.357-5.11 3.301-3.3 5.119-7.689 5.118-12.357.002-4.667-1.816-9.056-5.117-12.356zm-2.121 22.592c-5.644 5.644-14.827 5.643-20.472 0-5.643-5.644-5.643-14.827 0-20.471 5.645-5.644 14.827-5.643 20.472 0 2.733 2.734 4.239 6.369 4.239 10.235.001 3.867-1.504 7.502-4.239 10.236z" fill="#3a312a"/><path d="m223.619 22.625-10.937 11.097-9.275 9.411-68.255 69.255 10.038 9.829 88.467-89.763z" fill="#d7e057"/><path d="m234.707 31.382-10.038-9.829c-.591-.578-1.537-.57-2.118.019l-10.938 11.098c-.581.59-.574 1.54.016 2.121.59.582 1.539.574 2.121-.016l9.888-10.032 7.895 7.73-86.36 87.626-7.895-7.73 67.198-68.183c.581-.59.574-1.54-.016-2.121-.59-.583-1.539-.574-2.121.016l-68.255 69.255c-.28.284-.436.667-.432 1.066s.166.78.45 1.059l10.038 9.829c.292.286.671.428 1.05.428.388 0 .775-.149 1.068-.447l88.467-89.763c.28-.284.436-.667.432-1.066-.004-.4-.166-.781-.45-1.06z" fill="#3a312a"/><path d="m179.24 67.654-44.088 44.734 10.038 9.829 44.089-44.734z" fill="#f16c7a"/><path d="m190.329 76.411-10.039-9.829c-.591-.578-1.539-.57-2.118.019l-44.088 44.734c-.28.284-.436.667-.432 1.066s.166.78.45 1.059l10.038 9.829c.292.286.671.428 1.05.428.388 0 .774-.149 1.068-.447l44.089-44.734c.28-.284.436-.667.432-1.066s-.166-.78-.45-1.059zm-45.157 43.688-7.895-7.73 41.981-42.598 7.896 7.73z" fill="#3a312a"/><path d="m237.311 18.682c-2.772-2.714-7.22-2.667-9.934.105l-3.758 3.838 10.039 9.829 3.758-3.838c2.714-2.772 2.667-7.22-.105-9.934z" fill="#f16c7a"/><path d="m238.36 17.61c-1.627-1.592-3.799-2.469-6.054-2.433-2.277.024-4.408.933-6.002 2.56l-3.758 3.838c-.579.592-.569 1.542.022 2.121l10.038 9.829c.292.286.671.428 1.05.428.389 0 .778-.15 1.071-.451l3.76-3.838c3.289-3.357 3.232-8.766-.127-12.054zm-2.015 9.956-2.71 2.767-7.895-7.73 2.709-2.767c1.032-1.054 2.413-1.644 3.889-1.659h.06c1.454 0 2.824.559 3.863 1.577 2.177 2.131 2.214 5.636.084 7.812z" fill="#3a312a"/><path d="m135.152 112.388-7.701 17.906 17.739-8.077z" fill="#d7e057"/><path d="m146.24 121.145-10.038-9.829c-.354-.346-.86-.496-1.34-.4-.485.096-.893.425-1.088.879l-7.701 17.905c-.245.569-.114 1.231.328 1.665.287.28.666.428 1.05.428.21 0 .422-.044.621-.135l17.739-8.077c.45-.205.771-.619.856-1.106.086-.486-.074-.984-.427-1.33zm-15.877 6.174 5.303-12.329 6.912 6.768z" fill="#3a312a"/><path d="m145.9 139.147h-36c-.828 0-1.5.671-1.5 1.5s.672 1.5 1.5 1.5h36c.828 0 1.5-.671 1.5-1.5s-.671-1.5-1.5-1.5z" fill="#3a312a"/><path d="m133.8 111.747c.04-.08.08-.16.14-.23.02-.03.04-.06.07-.09.02-.03.05-.06.07-.09l11-11.16h-15l-11 11.16c-.02.03-.05.06-.07.09-.03.03-.05.06-.07.09-.06.07-.1.15-.14.23-.01.02-.02.03-.03.05l-7.7 17.9c-.24.57-.11 1.24.33 1.67.29.28.67.43 1.05.43.21 0 .42-.05.62-.14l15.11-6.88 5.59-12.98c.01-.02.02-.03.03-.05zm12.46 11.52c-.02.02-.03.02-.05.03-.12.12-.25.22-.4.29l-5.3 2.41v13.15h5.39c.83 0 1.5.67 1.5 1.5s-.67 1.5-1.5 1.5h-5.39v5.43c0 4.71-3.83 8.54-8.53 8.54h15c4.7 0 8.53-3.83 8.53-8.54v-33.7z" fill="#decaad"/></svg>